#!OML:ASF F:\VICON\USERDATA\INSTALL\rory3\rory3.ASF
:FULLY-SPECIFIED
:DEGREES
56
root 5.277892066450375 17.867873638132156 25.239646071309373 -4.2887371556979215 -5.4562897571586255 -1.4647175089935054
lfemur -16.394420126337245 -3.2138703822505206 -23.022829743384143
ltibia 28.245783385837278
lfoot -9.704477245254262 0.09340831126641991
ltoes 2.431870272435466
rfemur -12.682114797996325 1.5891969951476663 24.009506704677193
rtibia 72.9186130118226
rfoot 12.449913107360654 -2.9008103141230004
rtoes 19.03857594328691
lowerback 1.0 0.3801741306698399 0.5127787410095901
upperback 0.7387593099097162 1.3315606222866714 0.08028509649935378
thorax -5.241937157609798 0.5490406720467971 -0.062073295209864376
lowerneck -16.680417930676423 -2.8829384322223577 -1.8448049780170552
upperneck 19.225312159659133 -3.600655239960746 0.9855465183104761
head 7.830473866024541 -1.7226556265887063 0.36634802752525264
lclavicle 3.062557141078175e-16 -2.9463626033956624e-15
lhumerus -34.930186477597736 2.9907519336304746 82.4189806290813
lradius 21.620242403336228
lwrist 5.2682232251228776
lhand -26.710105693806128 22.086462143201615
lfingers nan
lthumb 0.21691365483305225 52.98733152004128
rclavicle 2.2118411132511205e-15 -1.8431794628829535e-15
rhumerus -26.938965080475615 -15.879733624863462 -81.8008098647074
rradius 31.425285116820785
rwrist 5.691850497261459
rhand -17.542966597115498 1.0
rfingers nan
rthumb 8.670606074001528 -7.057379063892935
57
root 5.277223857593413 17.886993652440413 24.384140557525754 -4.674517847978142 -4.943141242235739 -0.9922061336573622
lfemur -12.626757832280877 -3.2760246309596814 -23.799290161413094
ltibia 26.706794444335728
lfoot -10.748232858853381 0.9063066261743709
ltoes 2.541915162493181
rfemur -17.397666936862425 0.7929583587216644 23.810577879740148
rtibia 74.52072591391959
rfoot 6.148617694745763 -5.304440964141916
rtoes 15.523266602087256
lowerback 1.0 0.13662483775311093 0.4507294081283291
upperback 0.8682527561050126 1.0752331656130072 0.19424554636777747
thorax -5.2557629685731335 0.4562385512438265 0.4411940712969771
lowerneck -16.63722353547967 -2.8435653318812637 -1.980135842845981
upperneck 19.458351293720565 -3.2730605591886976 0.6942236923425771
head 8.10472013992865 -1.609917830540061 0.3577675857199922
lclavicle -5.814990855060356e-17 -2.3370998143689626e-15
lhumerus -34.161266770213196 2.1157186952275886 82.38986714502018
lradius 22.99526004806819
lwrist 5.39593484077449
lhand -26.038791356726374 22.37879061658232
lfingers nan
lthumb 0.6451107820197499 52.44370575356363
rclavicle 3.2959806832426106e-15 -2.1215021394559832e-16
rhumerus -27.985191685103967 -15.772875857473778 -81.8316586910899
rradius 30.127488545472076
rwrist 6.339978146918307
rhand -17.415538256326 1.0
rfingers nan
rthumb 9.028157499959454 -7.162335786874015
58
root 5.279705180585318 17.87807548310046 25.23131281895428 -4.667114504486927 -4.193533647374645 -0.7563203848728528
lfemur -9.110497912225092 -3.459484850638845 -25.11697440774178
ltibia 26.33380386985449
lfoot -12.21501014625395 1.5908313979812432
ltoes 2.9805684902228835
rfemur -21.56377210793974 0.23494079744212382 22.83632432355372
rtibia 73.96699889493108
rfoot 2.288831027802649 -6.35189138310476
rtoes 9.865281129454601
lowerback 1.0 -0.12278223575593666 -0.4532059958206077
upperback 0.9088912189050254 0.32784971040977473 0.302936510607958
thorax -5.361442200002627 0.1977386128755142 0.9618092345713574
lowerneck -16.825118639237218 -2.8772601001935607 -2.1498636579346115
upperneck 19.657152999822912 -2.959745575435095 0.47679257245600015
head 8.15230464873096 -1.4902365856526516 0.3003369552658718
lclavicle 5.767035711629007e-16 -2.238924175136836e-15
lhumerus -32.902331359342284 1.3986805401758267 82.61861123156423
lradius 24.90066093392273
lwrist 5.090493293502487
lhand -26.600403041408093 22.841956859455543
lfingers nan
lthumb 0.2574209369841597 53.949264456661574
rclavicle 2.504386967437177e-15 -4.474806337250568e-16
rhumerus -28.688487896854802 -15.635243075809106 -81.80954868425563
rradius 29.581964580149716
rwrist 7.306634523852319
rhand -16.972314996613285 1.0
rfingers nan
rthumb 9.060109917139016 -7.99331752088558
59
root 5.286830878941466 17.862551108127196 26.591674212828835 -4.46557385281535 -3.3918500988574394 -0.16788363119497474
lfemur -6.921770129858936 -3.3383758984122203 -25.894697710904175
ltibia 26.83809605598352
lfoot -14.082915083676152 1.8113021512423186
ltoes 3.827440610059429
rfemur -25.524319651073842 -0.3543164512283923 22.65900366083979
rtibia 70.73000142881556
rfoot -1.4959330600078715 -6.802362941206164
rtoes 9.031092783079597
lowerback 1.0 -0.3196286341131934 -0.7140375643412057
upperback 0.9780714228164511 -0.2511669374240104 0.5524875665450599
thorax -5.462284945827411 -0.025230067975253234 1.4509700728212822
lowerneck -17.196630255730877 -2.8030751583050755 -2.166761852702684
upperneck 19.83592128101539 -2.795228325802233 0.5633352799336127
head 8.343522006760862 -1.3676249660239432 0.34576265829666425
lclavicle -2.8212468301974854e-15 -3.826017175175813e-15
lhumerus -31.823529401317412 0.22003096270032585 82.74203276413456
lradius 25.374088585139315
lwrist 5.710937803049152
lhand -26.258174735909904 23.97978479600221
lfingers nan
lthumb 0.17110029760708334 54.102610163837646
rclavicle -9.346177303278401e-16 -8.920709804515725e-16
rhumerus -29.284265877500907 -14.99010636616292 -81.82219205106863
rradius 29.43010219742638
rwrist 6.791901585430941
rhand -17.189631972749336 1.0
rfingers nan
rthumb 8.815836797616289 -7.290065906643434
60
root 5.274651656573435 17.83635912711398 27.177043921422538 -4.163165721382704 -2.7453246122755797 0.3186037300534821
lfemur -3.787817031220091 -3.0801602133608803 -27.233121378599236
ltibia 27.194355968077133
lfoot -13.74160395676818 2.4022898457617403
ltoes 4.080446068131
rfemur -27.742808091197077 -0.4339504461668753 21.754940418957133
rtibia 65.3783759245209
rfoot -5.339242892248423 -7.525395759982978
rtoes 7.719642848981538
lowerback 1.0 -0.6006334237191251 -1.6584333764485808
upperback 0.9955372621401667 -0.8645403188560975 0.5983062143347742
thorax -5.496688008823426 -0.2918151238338097 2.1617163135597934
lowerneck -17.331060732587915 -2.752767925209448 -2.225229882681804
upperneck 19.66218242833595 -2.6807451950190293 0.5476131057796941
head 8.203903520574476 -1.3218979402391038 0.41106779831736306
lclavicle -2.0590307005088014e-16 -2.1188151365393505e-15
lhumerus -30.581567292616068 -1.1103618484349953 82.90409021925547
lradius 25.90572372096469
lwrist 5.9295595049614285
lhand -27.232728526675146 22.926632843755243
lfingers nan
lthumb -0.6513947608056456 53.12704635915843
rclavicle 2.7225698204189423e-15 1.8099118037115672e-15
rhumerus -29.922945967814965 -14.757789712246224 -81.94123801058846
rradius 29.366001206521105
rwrist 6.625785862019416
rhand -17.460470387069087 1.0
rfingers nan
rthumb 8.601851921071983 -7.437328708360079
61
root 5.2471945032595775 17.805029418535785 27.647909124514122 -3.5968685090335883 -2.184089642415748 0.7097731422277898
lfemur -0.3035163131869876 -3.0266482291269083 -27.213361926106973
ltibia 25.852421807938
lfoot -12.953273521523858 2.2173888552982586
ltoes 4.4905872392276365
rfemur -29.203579617579493 0.4074589287794739 21.62334276920361
rtibia 57.098632957232425
rfoot -7.032694074806133 -8.412576053377318
rtoes 0.49057454324403293
lowerback 1.0 -0.7753797089845982 -1.8870845313086955
upperback 1.0728829156296336 -0.9895372961765926 0.8843772104524159
thorax -5.404619751127737 -0.38668006256748333 2.5416835923981784
lowerneck -17.71357831725099 -2.786874182417323 -2.486778052947085
upperneck 18.736721635960112 -2.721436749219186 0.5754728642723748
head 8.086285630859669 -1.356462723455804 0.4588110475545666
lclavicle 8.499437386429104e-16 -1.4312003269874777e-15
lhumerus -29.580521289310063 -1.931895530294769 82.74477731609466
lradius 26.453716599115516
lwrist 6.341812069950872
lhand -26.730252357880005 24.41188169919009
lfingers nan
lthumb -0.19467616195124837 54.23448102015242
rclavicle 2.761356424028132e-15 1.2640153478233194e-15
rhumerus -30.25958866228866 -13.901363925611966 -82.07323275369284
rradius 28.88121725902913
rwrist 5.825831534449123
rhand -17.562380003334287 1.0
rfingers nan
rthumb 8.83817301408916 -7.431224921284721
62
root 5.228596774930127 17.786927575350145 28.93802480835215 -2.8463260169932574 -1.4694617704037447 1.295142560025364
lfemur 2.5903965466259766 -2.5407228911981132 -27.85933993432156
ltibia 21.409089245755066
lfoot -10.645186917752785 1.5672560163912488
ltoes 4.986189052166898
rfemur -29.124380441573305 1.605941550813828 20.501028333031897
rtibia 46.23516007023734
rfoot -7.054902112749567 -9.65724135363304
rtoes 0.9697358227312622
lowerback 1.0 -0.9348448209365252 -2.5868208794639354
upperback 1.0959269090036823 -1.1931471985951143 0.9381401434646036
thorax -5.1995855729593945 -0.4930946285818445 2.7360549365038915
lowerneck -17.995008648278535 -2.834783389140004 -2.6074020377234173
upperneck 18.280094993132767 -2.8381779080843055 0.6134172956098762
head 8.045598646208841 -1.4302558100868383 0.41510445715126343
lclavicle 1.3822365729236812e-15 2.1683909590305715e-16
lhumerus -28.510558780317183 -2.716505838953762 82.6805302026875
lradius 27.210145561298557
lwrist 6.638582141769392
lhand -27.37045831880231 23.062850361071124
lfingers nan
lthumb -0.9488928540395621 52.36752784950464
rclavicle -2.3997249748900927e-16 -1.1445588767979379e-15
rhumerus -30.563329945342538 -13.543011903933266 -82.39823062473722
rradius 28.233841707559634
rwrist 5.52110374215432
rhand -17.562223160481057 1.0
rfingers nan
rthumb 8.784048022958617 -8.15764080507967
